<?xml version="1.0" encoding="utf-8"?>
<!-- Generator: Adobe Illustrator 19.0.0, SVG Export Plug-In . SVG Version: 6.00 Build 0)  -->
<svg version="1.1" id="Layer_1" xmlns="http://www.w3.org/2000/svg" xmlns:xlink="http://www.w3.org/1999/xlink" x="0px" y="0px"
	 viewBox="0 0 960 560" style="enable-background:new 0 0 960 560;" xml:space="preserve">
<style type="text/css">
	.st0{clip-path:url(#SVGID_2_);fill:url(#SVGID_3_);}
	.st1{clip-path:url(#SVGID_5_);fill:url(#SVGID_6_);}
	.st2{clip-path:url(#SVGID_8_);fill:url(#SVGID_9_);}
	.st3{clip-path:url(#SVGID_11_);fill:url(#SVGID_12_);}
	.st4{fill:#0F69A8;}
</style>
<g>
	<defs>
		<polygon id="SVGID_1_" points="265.3,49.2 118.3,131.9 118.3,288.9 157.3,311.1 157.3,148 264.5,88.3 		"/>
	</defs>
	<clipPath id="SVGID_2_">
		<use xlink:href="#SVGID_1_"  style="overflow:visible;"/>
	</clipPath>
	
		<linearGradient id="SVGID_3_" gradientUnits="userSpaceOnUse" x1="230.9907" y1="529.5357" x2="231.9907" y2="529.5357" gradientTransform="matrix(-22.9787 441.9575 441.9575 22.9787 -228522.2656 -114274.8359)">
		<stop  offset="0" style="stop-color:#1B3D84"/>
		<stop  offset="5.327790e-009" style="stop-color:#1B3D84"/>
		<stop  offset="0.5517" style="stop-color:#155497"/>
		<stop  offset="0.9951" style="stop-color:#0F69A8"/>
		<stop  offset="1" style="stop-color:#0F69A8"/>
	</linearGradient>
	<polygon class="st0" points="278.9,49.9 264.9,318.7 104.7,310.4 118.6,41.6 	"/>
</g>
<g>
	<defs>
		<polygon id="SVGID_4_" points="315.1,112.8 315.1,190.9 281.4,213.9 281.4,49.2 370.2,101.3 370.2,241.4 280.6,294.3 280.6,255.2 
			335.8,225.3 335.8,122 		"/>
	</defs>
	<clipPath id="SVGID_5_">
		<use xlink:href="#SVGID_4_"  style="overflow:visible;"/>
	</clipPath>
	
		<linearGradient id="SVGID_6_" gradientUnits="userSpaceOnUse" x1="231.0713" y1="530.4368" x2="232.0713" y2="530.4368" gradientTransform="matrix(-41.3617 -466.4681 -466.4681 41.3617 257343.0469 86338.1641)">
		<stop  offset="0" style="stop-color:#1B3D84"/>
		<stop  offset="5.327790e-009" style="stop-color:#1B3D84"/>
		<stop  offset="0.5517" style="stop-color:#155497"/>
		<stop  offset="0.9951" style="stop-color:#0F69A8"/>
		<stop  offset="1" style="stop-color:#0F69A8"/>
	</linearGradient>
	<polygon class="st1" points="281.3,302.2 259.1,51.1 369.5,41.3 391.8,292.4 	"/>
</g>
<g>
	<defs>
		<polygon id="SVGID_7_" points="387.5,112.4 425.8,133.9 425.8,290.8 281.4,374.3 281.4,338.2 388.6,276.6 		"/>
	</defs>
	<clipPath id="SVGID_8_">
		<use xlink:href="#SVGID_7_"  style="overflow:visible;"/>
	</clipPath>
	
		<linearGradient id="SVGID_9_" gradientUnits="userSpaceOnUse" x1="231.0713" y1="530.4397" x2="232.0713" y2="530.4397" gradientTransform="matrix(-41.3617 -466.4681 -466.4681 41.3617 257366.0156 86336.125)">
		<stop  offset="0" style="stop-color:#1B3D84"/>
		<stop  offset="5.327790e-009" style="stop-color:#1B3D84"/>
		<stop  offset="0.5517" style="stop-color:#155497"/>
		<stop  offset="0.9951" style="stop-color:#0F69A8"/>
		<stop  offset="1" style="stop-color:#0F69A8"/>
	</linearGradient>
	<polygon class="st2" points="282.5,387 258.3,114.4 424.6,99.7 448.8,372.3 	"/>
</g>
<g>
	<defs>
		<polygon id="SVGID_10_" points="265,131 174.5,183.1 174.5,322.9 265,374 265,213.4 228.8,232.2 228.8,314.6 209.6,307.3 
			209.6,201.9 265,169.6 		"/>
	</defs>
	<clipPath id="SVGID_11_">
		<use xlink:href="#SVGID_10_"  style="overflow:visible;"/>
	</clipPath>
	
		<linearGradient id="SVGID_12_" gradientUnits="userSpaceOnUse" x1="230.9907" y1="529.5236" x2="231.9907" y2="529.5236" gradientTransform="matrix(-22.9787 441.9575 441.9575 22.9787 -228485.25 -114272.9063)">
		<stop  offset="0" style="stop-color:#1B3D84"/>
		<stop  offset="5.327790e-009" style="stop-color:#1B3D84"/>
		<stop  offset="0.5517" style="stop-color:#155497"/>
		<stop  offset="0.9951" style="stop-color:#0F69A8"/>
		<stop  offset="1" style="stop-color:#0F69A8"/>
	</linearGradient>
	<polygon class="st3" points="277.6,131.7 264.8,378.7 161.9,373.3 174.7,126.3 	"/>
</g>
<g id="XMLID_54_">
	<path id="XMLID_55_" class="st4" d="M477.4,190.3c-1-4.2-1.7-6.6-3.3-8.7c-1.9-3-4.2-4-12.4-4h-8c-3.4,0-3.7,0.3-3.7,3.5v25h11
		c10,0,10.6-1,12-8h3.2v21.1h-3.3c-1.3-7.5-1.9-8.6-11.9-8.6h-11v18.7c0,9.5,1,10.2,11,10.9v3.1h-30.8v-3.1
		c8.7-0.7,9.7-1.4,9.7-10.9v-41.8c0-9.4-1-10-9.4-10.6v-3.2h49.1c0.1,4,0.7,10.8,1.2,16.1L477.4,190.3z"/>
	<path id="XMLID_57_" class="st4" d="M547.8,240.8c-2.5,0.3-5.6,1-8.6,1.7c-3,0.8-5.9,1.5-8.2,2.1l-0.7-0.6v-7.6
		c-2.5,1.8-4.6,3.7-7.7,5.5c-3.2,1.8-5.6,2.7-8.6,2.7c-7.6,0-13.8-4.5-13.8-16v-20.4c0-5.9-0.9-6.4-3.7-7l-2.9-0.7v-2.6
		c2.2-0.1,5.1-0.4,8.2-0.7c3.1-0.4,6.3-0.9,8.2-1.2c-0.3,3.3-0.3,8.4-0.3,15.5v14.4c0,8.9,4.5,11.7,9.4,11.7c3.8,0,7.7-1.5,11.2-4.8
		v-24.7c0-5.9-1-6.5-4.5-7.1l-3.9-0.7v-2.6c3.1-0.1,7-0.4,10.3-0.9c3.2-0.2,5.9-0.7,7.5-1v35.3c0,5.6,0.9,6.3,5.1,6.6l2.9,0.1V240.8
		z"/>
	<path id="XMLID_59_" class="st4" d="M580.7,243.1c-2,1.1-3.7,1.5-4.6,1.5c-7.3,0-11.3-4.1-11.3-12.7v-30.8h-7.4l-0.5-1.2l3-3.2h4.9
		v-7.8l8-7.5l1.5,0.3v14.9h12.2c1.1,1.2,0.7,3.5-0.7,4.5h-11.4v27c0,8.6,3.7,10.1,6.4,10.1c2.6,0,5-1,6.6-1.8l1,2.9L580.7,243.1z"/>
	<path id="XMLID_61_" class="st4" d="M652.4,240.8c-2.5,0.3-5.6,1-8.6,1.7c-3,0.8-5.9,1.5-8.2,2.1l-0.7-0.6v-7.6
		c-2.5,1.8-4.6,3.7-7.7,5.5c-3.2,1.8-5.6,2.7-8.6,2.7c-7.6,0-13.8-4.5-13.8-16v-20.4c0-5.9-0.9-6.4-3.7-7l-2.9-0.7v-2.6
		c2.2-0.1,5.1-0.4,8.2-0.7c3.1-0.4,6.3-0.9,8.2-1.2c-0.3,3.3-0.3,8.4-0.3,15.5v14.4c0,8.9,4.5,11.7,9.4,11.7c3.8,0,7.7-1.5,11.2-4.8
		v-24.7c0-5.9-1-6.5-4.5-7.1l-3.9-0.7v-2.6c3.1-0.1,7-0.4,10.3-0.9c3.2-0.2,5.9-0.7,7.5-1v35.3c0,5.6,0.9,6.3,5.1,6.6l2.9,0.1V240.8
		z"/>
	<path id="XMLID_63_" class="st4" d="M680.4,206.9c3.6-5.9,8.1-11.6,13.1-11.6c4,0,6.6,2.9,6.6,5.5c0,2.5-1.5,4.7-3.8,5.8
		c-1.3,0.5-2.3,0.3-2.9-0.3c-1.7-1.5-2.9-2.2-4.8-2.2c-2.8,0-6.1,3.1-8.4,8.9v19.1c0,7,0.5,7.7,9,8.3v2.9h-26v-2.9
		c6.6-0.7,7.5-1.3,7.5-8.3v-22.2c0-6.8-0.6-7.3-6.7-8.1v-2.4c5.4-0.9,10.5-2.1,16.1-4.4v11.9H680.4z"/>
	<path id="XMLID_65_" class="st4" d="M750.3,233.8c-7,8.9-14.9,10.8-18.4,10.8c-13.4,0-21.3-10.8-21.3-22.7c0-7.1,2.6-13.5,7-18.3
		c4.7-5.1,10.6-8.2,16.4-8.2h0.1c9.3,0,16.7,8,16.7,16.5c0,2.1-0.6,3-2.6,3.4c-2,0.3-15.6,1.4-28.2,1.8c0.2,13.8,8.3,19.7,15.9,19.7
		c4.5,0,8.6-1.7,12.6-5.3L750.3,233.8z M731.4,199.4c-4.7,0-9.4,4.2-10.9,13.1c5.8,0,11.6,0,17.7-0.2c1.9-0.1,2.6-0.7,2.6-2.1
		C740.7,204.6,737.2,199.4,731.4,199.4L731.4,199.4z"/>
	<path id="XMLID_68_" class="st4" d="M872.6,214c-6.5,1-6.9,1.5-6.9,8.1v8.9c0,3.7,0.1,7.2,0.7,9.9c-7,1.6-16.3,4.2-25.5,4.2
		c-24.9,0-41.6-14.7-41.6-36c0-24.6,20.8-36.9,43.1-36.9c9.5,0,18.4,2.4,22.1,3.2c0.3,3.7,0.8,9.7,1.7,17.3l-3.2,0.7
		c-2.6-13.3-11.3-17.3-22.3-17.3c-16.8,0-29.2,12-29.2,31.6c0,15.5,9.4,33.5,30.8,33.5c3.6,0,7.1-0.7,9.4-1.9
		c2.3-1.2,3.7-2.8,3.7-6.9v-8.8c0-7.9-0.7-8.6-11.8-9.5v-3.1h28.9V214z"/>
	<path id="XMLID_70_" class="st4" d="M919.5,244.6c-2.1,0-4.4-1-5.6-2.1c-1.5-1.4-2.1-2.9-2.6-4.5c-4.4,2.8-9.5,6.7-12.6,6.7
		c-8.1,0-13.5-6.4-13.5-13.2c0-5.3,2.9-8.6,8.9-10.5c7-2.2,14.5-5,16.8-7v-1.9c0-7.7-3.5-11.8-8.7-11.8c-1.9,0-3.5,0.7-4.6,1.9
		c-1.4,1.4-2.3,3.8-3.3,7.3c-0.7,1.9-1.8,2.6-3.5,2.6c-2.1,0-5-2.2-5-4.8c0-1.6,1.4-2.9,3.5-4.4c3.1-2.3,10.5-6.4,16.6-7.5
		c3.4,0,6.6,0.8,9.1,2.7c4,3.4,5.2,7.8,5.2,13.5v19.3c0,4.8,1.9,6.4,3.9,6.4c1.2,0,2.7-0.5,3.9-1.2l1.1,2.9L919.5,244.6z
		 M910.9,217.7c-2.2,1.1-6.6,3.1-8.9,4.2c-4.2,1.8-6.6,4-6.6,7.9c0,5.6,4.2,8.1,7.5,8.1c2.6,0,6.1-1.6,8-3.5V217.7z"/>
	<path id="XMLID_73_" class="st4" d="M961.2,243.1c-2,1.1-3.7,1.5-4.6,1.5c-7.3,0-11.3-4.1-11.3-12.7v-30.8h-7.4l-0.5-1.2l3-3.2h4.9
		v-7.8l8-7.5l1.5,0.3v14.9h12.2c1.1,1.2,0.7,3.5-0.7,4.5h-11.4v27c0,8.6,3.7,10.1,6.4,10.1c2.6,0,5-1,6.6-1.8l1,2.9L961.2,243.1z"/>
	<path id="XMLID_75_" class="st4" d="M1019,233.8c-7,8.9-14.9,10.8-18.4,10.8c-13.4,0-21.3-10.8-21.3-22.7c0-7.1,2.6-13.5,7-18.3
		c4.7-5.1,10.6-8.2,16.4-8.2h0.1c9.3,0,16.7,8,16.7,16.5c0,2.1-0.6,3-2.6,3.4c-2,0.3-15.6,1.4-28.2,1.8c0.2,13.8,8.3,19.7,15.9,19.7
		c4.5,0,8.6-1.7,12.6-5.3L1019,233.8z M1000.1,199.4c-4.7,0-9.4,4.2-10.9,13.1c5.8,0,11.6,0,17.7-0.2c1.9-0.1,2.6-0.7,2.6-2.1
		C1009.4,204.6,1005.9,199.4,1000.1,199.4L1000.1,199.4z"/>
	<path id="XMLID_78_" class="st4" d="M1060.4,209.7c-2.1-6.3-5.9-10.8-11.3-10.8c-4,0-6.7,2.9-6.7,7.1c0,4.4,4.1,7,9,8.9
		c8.3,3.3,13.9,7.2,13.9,14.7c0,10-9.2,15-18.2,15c-5.6,0-10.8-2-12.6-3.5c-0.7-1.4-1.8-8.9-1.9-13.2l3-0.4
		c2.1,7.2,7,13.5,13.4,13.5c4,0,7.5-3,7.5-7.3c0-4.4-2.9-6.8-8.4-9.3c-6.3-2.9-13.8-6.5-13.8-15c0-7.6,6.6-14.1,16.8-14.1
		c4.7,0,7.6,1,9.8,1.9c1,2.3,2.3,8.9,2.5,11.5L1060.4,209.7z"/>
</g>
<g id="XMLID_28_">
	<path id="XMLID_29_" class="st4" d="M477.4,190.3c-1-4.2-1.7-6.6-3.3-8.7c-1.9-3-4.2-4-12.4-4h-8c-3.4,0-3.7,0.3-3.7,3.5v25h11
		c10,0,10.6-1,12-8h3.2v21.1h-3.3c-1.3-7.5-1.9-8.6-11.9-8.6h-11v18.7c0,9.5,1,10.2,11,10.9v3.1h-30.8v-3.1
		c8.7-0.7,9.7-1.4,9.7-10.9v-41.8c0-9.4-1-10-9.4-10.6v-3.2h49.1c0.1,4,0.7,10.8,1.2,16.1L477.4,190.3z"/>
	<path id="XMLID_31_" class="st4" d="M547.8,240.8c-2.5,0.3-5.6,1-8.6,1.7c-3,0.8-5.9,1.5-8.2,2.1l-0.7-0.6v-7.6
		c-2.5,1.8-4.6,3.7-7.7,5.5c-3.2,1.8-5.6,2.7-8.6,2.7c-7.6,0-13.8-4.5-13.8-16v-20.4c0-5.9-0.9-6.4-3.7-7l-2.9-0.7v-2.6
		c2.2-0.1,5.1-0.4,8.2-0.7c3.1-0.4,6.3-0.9,8.2-1.2c-0.3,3.3-0.3,8.4-0.3,15.5v14.4c0,8.9,4.5,11.7,9.4,11.7c3.8,0,7.7-1.5,11.2-4.8
		v-24.7c0-5.9-1-6.5-4.5-7.1l-3.9-0.7v-2.6c3.1-0.1,7-0.4,10.3-0.9c3.2-0.2,5.9-0.7,7.5-1v35.3c0,5.6,0.9,6.3,5.1,6.6l2.9,0.1V240.8
		z"/>
	<path id="XMLID_33_" class="st4" d="M580.7,243.1c-2,1.1-3.7,1.5-4.6,1.5c-7.3,0-11.3-4.1-11.3-12.7v-30.8h-7.4l-0.5-1.2l3-3.2h4.9
		v-7.8l8-7.5l1.5,0.3v14.9h12.2c1.1,1.2,0.7,3.5-0.7,4.5h-11.4v27c0,8.6,3.7,10.1,6.4,10.1c2.6,0,5-1,6.6-1.8l1,2.9L580.7,243.1z"/>
	<path id="XMLID_35_" class="st4" d="M652.4,240.8c-2.5,0.3-5.6,1-8.6,1.7c-3,0.8-5.9,1.5-8.2,2.1l-0.7-0.6v-7.6
		c-2.5,1.8-4.6,3.7-7.7,5.5c-3.2,1.8-5.6,2.7-8.6,2.7c-7.6,0-13.8-4.5-13.8-16v-20.4c0-5.9-0.9-6.4-3.7-7l-2.9-0.7v-2.6
		c2.2-0.1,5.1-0.4,8.2-0.7c3.1-0.4,6.3-0.9,8.2-1.2c-0.3,3.3-0.3,8.4-0.3,15.5v14.4c0,8.9,4.5,11.7,9.4,11.7c3.8,0,7.7-1.5,11.2-4.8
		v-24.7c0-5.9-1-6.5-4.5-7.1l-3.9-0.7v-2.6c3.1-0.1,7-0.4,10.3-0.9c3.2-0.2,5.9-0.7,7.5-1v35.3c0,5.6,0.9,6.3,5.1,6.6l2.9,0.1V240.8
		z"/>
	<path id="XMLID_37_" class="st4" d="M680.4,206.9c3.6-5.9,8.1-11.6,13.1-11.6c4,0,6.6,2.9,6.6,5.5c0,2.5-1.5,4.7-3.8,5.8
		c-1.3,0.5-2.3,0.3-2.9-0.3c-1.7-1.5-2.9-2.2-4.8-2.2c-2.8,0-6.1,3.1-8.4,8.9v19.1c0,7,0.5,7.7,9,8.3v2.9h-26v-2.9
		c6.6-0.7,7.5-1.3,7.5-8.3v-22.2c0-6.8-0.6-7.3-6.7-8.1v-2.4c5.4-0.9,10.5-2.1,16.1-4.4v11.9H680.4z"/>
	<path id="XMLID_39_" class="st4" d="M750.3,233.8c-7,8.9-14.9,10.8-18.4,10.8c-13.4,0-21.3-10.8-21.3-22.7c0-7.1,2.6-13.5,7-18.3
		c4.7-5.1,10.6-8.2,16.4-8.2h0.1c9.3,0,16.7,8,16.7,16.5c0,2.1-0.6,3-2.6,3.4c-2,0.3-15.6,1.4-28.2,1.8c0.2,13.8,8.3,19.7,15.9,19.7
		c4.5,0,8.6-1.7,12.6-5.3L750.3,233.8z M731.4,199.4c-4.7,0-9.4,4.2-10.9,13.1c5.8,0,11.6,0,17.7-0.2c1.9-0.1,2.6-0.7,2.6-2.1
		C740.7,204.6,737.2,199.4,731.4,199.4L731.4,199.4z"/>
	<path id="XMLID_42_" class="st4" d="M872.6,214c-6.5,1-6.9,1.5-6.9,8.1v8.9c0,3.7,0.1,7.2,0.7,9.9c-7,1.6-16.3,4.2-25.5,4.2
		c-24.9,0-41.6-14.7-41.6-36c0-24.6,20.8-36.9,43.1-36.9c9.5,0,18.4,2.4,22.1,3.2c0.3,3.7,0.8,9.7,1.7,17.3l-3.2,0.7
		c-2.6-13.3-11.3-17.3-22.3-17.3c-16.8,0-29.2,12-29.2,31.6c0,15.5,9.4,33.5,30.8,33.5c3.6,0,7.1-0.7,9.4-1.9
		c2.3-1.2,3.7-2.8,3.7-6.9v-8.8c0-7.9-0.7-8.6-11.8-9.5v-3.1h28.9V214z"/>
	<path id="XMLID_44_" class="st4" d="M919.5,244.6c-2.1,0-4.4-1-5.6-2.1c-1.5-1.4-2.1-2.9-2.6-4.5c-4.4,2.8-9.5,6.7-12.6,6.7
		c-8.1,0-13.5-6.4-13.5-13.2c0-5.3,2.9-8.6,8.9-10.5c7-2.2,14.5-5,16.8-7v-1.9c0-7.7-3.5-11.8-8.7-11.8c-1.9,0-3.5,0.7-4.6,1.9
		c-1.4,1.4-2.3,3.8-3.3,7.3c-0.7,1.9-1.8,2.6-3.5,2.6c-2.1,0-5-2.2-5-4.8c0-1.6,1.4-2.9,3.5-4.4c3.1-2.3,10.5-6.4,16.6-7.5
		c3.4,0,6.6,0.8,9.1,2.7c4,3.4,5.2,7.8,5.2,13.5v19.3c0,4.8,1.9,6.4,3.9,6.4c1.2,0,2.7-0.5,3.9-1.2l1.1,2.9L919.5,244.6z
		 M910.9,217.7c-2.2,1.1-6.6,3.1-8.9,4.2c-4.2,1.8-6.6,4-6.6,7.9c0,5.6,4.2,8.1,7.5,8.1c2.6,0,6.1-1.6,8-3.5V217.7z"/>
	<path id="XMLID_47_" class="st4" d="M961.2,243.1c-2,1.1-3.7,1.5-4.6,1.5c-7.3,0-11.3-4.1-11.3-12.7v-30.8h-7.4l-0.5-1.2l3-3.2h4.9
		v-7.8l8-7.5l1.5,0.3v14.9h12.2c1.1,1.2,0.7,3.5-0.7,4.5h-11.4v27c0,8.6,3.7,10.1,6.4,10.1c2.6,0,5-1,6.6-1.8l1,2.9L961.2,243.1z"/>
	<path id="XMLID_49_" class="st4" d="M1019,233.8c-7,8.9-14.9,10.8-18.4,10.8c-13.4,0-21.3-10.8-21.3-22.7c0-7.1,2.6-13.5,7-18.3
		c4.7-5.1,10.6-8.2,16.4-8.2h0.1c9.3,0,16.7,8,16.7,16.5c0,2.1-0.6,3-2.6,3.4c-2,0.3-15.6,1.4-28.2,1.8c0.2,13.8,8.3,19.7,15.9,19.7
		c4.5,0,8.6-1.7,12.6-5.3L1019,233.8z M1000.1,199.4c-4.7,0-9.4,4.2-10.9,13.1c5.8,0,11.6,0,17.7-0.2c1.9-0.1,2.6-0.7,2.6-2.1
		C1009.4,204.6,1005.9,199.4,1000.1,199.4L1000.1,199.4z"/>
	<path id="XMLID_52_" class="st4" d="M1060.4,209.7c-2.1-6.3-5.9-10.8-11.3-10.8c-4,0-6.7,2.9-6.7,7.1c0,4.4,4.1,7,9,8.9
		c8.3,3.3,13.9,7.2,13.9,14.7c0,10-9.2,15-18.2,15c-5.6,0-10.8-2-12.6-3.5c-0.7-1.4-1.8-8.9-1.9-13.2l3-0.4
		c2.1,7.2,7,13.5,13.4,13.5c4,0,7.5-3,7.5-7.3c0-4.4-2.9-6.8-8.4-9.3c-6.3-2.9-13.8-6.5-13.8-15c0-7.6,6.6-14.1,16.8-14.1
		c4.7,0,7.6,1,9.8,1.9c1,2.3,2.3,8.9,2.5,11.5L1060.4,209.7z"/>
</g>
<g id="XMLID_1_">
	<path id="XMLID_3_" class="st4" d="M477.4,190.3c-1-4.2-1.7-6.6-3.3-8.7c-1.9-3-4.2-4-12.4-4h-8c-3.4,0-3.7,0.3-3.7,3.5v25h11
		c10,0,10.6-1,12-8h3.2v21.1h-3.3c-1.3-7.5-1.9-8.6-11.9-8.6h-11v18.7c0,9.5,1,10.2,11,10.9v3.1h-30.8v-3.1
		c8.7-0.7,9.7-1.4,9.7-10.9v-41.8c0-9.4-1-10-9.4-10.6v-3.2h49.1c0.1,4,0.7,10.8,1.2,16.1L477.4,190.3z"/>
	<path id="XMLID_5_" class="st4" d="M547.8,240.8c-2.5,0.3-5.6,1-8.6,1.7c-3,0.8-5.9,1.5-8.2,2.1l-0.7-0.6v-7.6
		c-2.5,1.8-4.6,3.7-7.7,5.5c-3.2,1.8-5.6,2.7-8.6,2.7c-7.6,0-13.8-4.5-13.8-16v-20.4c0-5.9-0.9-6.4-3.7-7l-2.9-0.7v-2.6
		c2.2-0.1,5.1-0.4,8.2-0.7c3.1-0.4,6.3-0.9,8.2-1.2c-0.3,3.3-0.3,8.4-0.3,15.5v14.4c0,8.9,4.5,11.7,9.4,11.7c3.8,0,7.7-1.5,11.2-4.8
		v-24.7c0-5.9-1-6.5-4.5-7.1l-3.9-0.7v-2.6c3.1-0.1,7-0.4,10.3-0.9c3.2-0.2,5.9-0.7,7.5-1v35.3c0,5.6,0.9,6.3,5.1,6.6l2.9,0.1V240.8
		z"/>
	<path id="XMLID_7_" class="st4" d="M580.7,243.1c-2,1.1-3.7,1.5-4.6,1.5c-7.3,0-11.3-4.1-11.3-12.7v-30.8h-7.4l-0.5-1.2l3-3.2h4.9
		v-7.8l8-7.5l1.5,0.3v14.9h12.2c1.1,1.2,0.7,3.5-0.7,4.5h-11.4v27c0,8.6,3.7,10.1,6.4,10.1c2.6,0,5-1,6.6-1.8l1,2.9L580.7,243.1z"/>
	<path id="XMLID_9_" class="st4" d="M652.4,240.8c-2.5,0.3-5.6,1-8.6,1.7c-3,0.8-5.9,1.5-8.2,2.1l-0.7-0.6v-7.6
		c-2.5,1.8-4.6,3.7-7.7,5.5c-3.2,1.8-5.6,2.7-8.6,2.7c-7.6,0-13.8-4.5-13.8-16v-20.4c0-5.9-0.9-6.4-3.7-7l-2.9-0.7v-2.6
		c2.2-0.1,5.1-0.4,8.2-0.7c3.1-0.4,6.3-0.9,8.2-1.2c-0.3,3.3-0.3,8.4-0.3,15.5v14.4c0,8.9,4.5,11.7,9.4,11.7c3.8,0,7.7-1.5,11.2-4.8
		v-24.7c0-5.9-1-6.5-4.5-7.1l-3.9-0.7v-2.6c3.1-0.1,7-0.4,10.3-0.9c3.2-0.2,5.9-0.7,7.5-1v35.3c0,5.6,0.9,6.3,5.1,6.6l2.9,0.1V240.8
		z"/>
	<path id="XMLID_11_" class="st4" d="M680.4,206.9c3.6-5.9,8.1-11.6,13.1-11.6c4,0,6.6,2.9,6.6,5.5c0,2.5-1.5,4.7-3.8,5.8
		c-1.3,0.5-2.3,0.3-2.9-0.3c-1.7-1.5-2.9-2.2-4.8-2.2c-2.8,0-6.1,3.1-8.4,8.9v19.1c0,7,0.5,7.7,9,8.3v2.9h-26v-2.9
		c6.6-0.7,7.5-1.3,7.5-8.3v-22.2c0-6.8-0.6-7.3-6.7-8.1v-2.4c5.4-0.9,10.5-2.1,16.1-4.4v11.9H680.4z"/>
	<path id="XMLID_13_" class="st4" d="M750.3,233.8c-7,8.9-14.9,10.8-18.4,10.8c-13.4,0-21.3-10.8-21.3-22.7c0-7.1,2.6-13.5,7-18.3
		c4.7-5.1,10.6-8.2,16.4-8.2h0.1c9.3,0,16.7,8,16.7,16.5c0,2.1-0.6,3-2.6,3.4c-2,0.3-15.6,1.4-28.2,1.8c0.2,13.8,8.3,19.7,15.9,19.7
		c4.5,0,8.6-1.7,12.6-5.3L750.3,233.8z M731.4,199.4c-4.7,0-9.4,4.2-10.9,13.1c5.8,0,11.6,0,17.7-0.2c1.9-0.1,2.6-0.7,2.6-2.1
		C740.7,204.6,737.2,199.4,731.4,199.4L731.4,199.4z"/>
	<path id="XMLID_16_" class="st4" d="M872.6,214c-6.5,1-6.9,1.5-6.9,8.1v8.9c0,3.7,0.1,7.2,0.7,9.9c-7,1.6-16.3,4.2-25.5,4.2
		c-24.9,0-41.6-14.7-41.6-36c0-24.6,20.8-36.9,43.1-36.9c9.5,0,18.4,2.4,22.1,3.2c0.3,3.7,0.8,9.7,1.7,17.3l-3.2,0.7
		c-2.6-13.3-11.3-17.3-22.3-17.3c-16.8,0-29.2,12-29.2,31.6c0,15.5,9.4,33.5,30.8,33.5c3.6,0,7.1-0.7,9.4-1.9
		c2.3-1.2,3.7-2.8,3.7-6.9v-8.8c0-7.9-0.7-8.6-11.8-9.5v-3.1h28.9V214z"/>
	<path id="XMLID_18_" class="st4" d="M919.5,244.6c-2.1,0-4.4-1-5.6-2.1c-1.5-1.4-2.1-2.9-2.6-4.5c-4.4,2.8-9.5,6.7-12.6,6.7
		c-8.1,0-13.5-6.4-13.5-13.2c0-5.3,2.9-8.6,8.9-10.5c7-2.2,14.5-5,16.8-7v-1.9c0-7.7-3.5-11.8-8.7-11.8c-1.9,0-3.5,0.7-4.6,1.9
		c-1.4,1.4-2.3,3.8-3.3,7.3c-0.7,1.9-1.8,2.6-3.5,2.6c-2.1,0-5-2.2-5-4.8c0-1.6,1.4-2.9,3.5-4.4c3.1-2.3,10.5-6.4,16.6-7.5
		c3.4,0,6.6,0.8,9.1,2.7c4,3.4,5.2,7.8,5.2,13.5v19.3c0,4.8,1.9,6.4,3.9,6.4c1.2,0,2.7-0.5,3.9-1.2l1.1,2.9L919.5,244.6z
		 M910.9,217.7c-2.2,1.1-6.6,3.1-8.9,4.2c-4.2,1.8-6.6,4-6.6,7.9c0,5.6,4.2,8.1,7.5,8.1c2.6,0,6.1-1.6,8-3.5V217.7z"/>
	<path id="XMLID_21_" class="st4" d="M961.2,243.1c-2,1.1-3.7,1.5-4.6,1.5c-7.3,0-11.3-4.1-11.3-12.7v-30.8h-7.4l-0.5-1.2l3-3.2h4.9
		v-7.8l8-7.5l1.5,0.3v14.9h12.2c1.1,1.2,0.7,3.5-0.7,4.5h-11.4v27c0,8.6,3.7,10.1,6.4,10.1c2.6,0,5-1,6.6-1.8l1,2.9L961.2,243.1z"/>
	<path id="XMLID_23_" class="st4" d="M1019,233.8c-7,8.9-14.9,10.8-18.4,10.8c-13.4,0-21.3-10.8-21.3-22.7c0-7.1,2.6-13.5,7-18.3
		c4.7-5.1,10.6-8.2,16.4-8.2h0.1c9.3,0,16.7,8,16.7,16.5c0,2.1-0.6,3-2.6,3.4c-2,0.3-15.6,1.4-28.2,1.8c0.2,13.8,8.3,19.7,15.9,19.7
		c4.5,0,8.6-1.7,12.6-5.3L1019,233.8z M1000.1,199.4c-4.7,0-9.4,4.2-10.9,13.1c5.8,0,11.6,0,17.7-0.2c1.9-0.1,2.6-0.7,2.6-2.1
		C1009.4,204.6,1005.9,199.4,1000.1,199.4L1000.1,199.4z"/>
	<path id="XMLID_26_" class="st4" d="M1060.4,209.7c-2.1-6.3-5.9-10.8-11.3-10.8c-4,0-6.7,2.9-6.7,7.1c0,4.4,4.1,7,9,8.9
		c8.3,3.3,13.9,7.2,13.9,14.7c0,10-9.2,15-18.2,15c-5.6,0-10.8-2-12.6-3.5c-0.7-1.4-1.8-8.9-1.9-13.2l3-0.4
		c2.1,7.2,7,13.5,13.4,13.5c4,0,7.5-3,7.5-7.3c0-4.4-2.9-6.8-8.4-9.3c-6.3-2.9-13.8-6.5-13.8-15c0-7.6,6.6-14.1,16.8-14.1
		c4.7,0,7.6,1,9.8,1.9c1,2.3,2.3,8.9,2.5,11.5L1060.4,209.7z"/>
</g>
</svg>
